<?xml version="1.0" standalone="no"?>
<!DOCTYPE svg PUBLIC "-//W3C//DTD SVG 20010904//EN"
 "http://www.w3.org/TR/2001/REC-SVG-20010904/DTD/svg10.dtd">
<svg version="1.0" xmlns="http://www.w3.org/2000/svg"
 width="112.000000pt" height="112.000000pt" viewBox="0 0 112.000000 112.000000"
 preserveAspectRatio="xMidYMid meet">
<metadata>
Created by potrace 1.14, written by Peter Selinger 2001-2017
</metadata>
<g transform="translate(0.000000,112.000000) scale(0.100000,-0.100000)"
fill="#000000" stroke="none">
<path d="M388 783 c-2 -4 -4 -75 -3 -158 1 -82 -2 -160 -6 -172 -18 -49 -89
-30 -89 24 0 23 -3 24 -37 19 -21 -3 -40 -5 -43 -6 -12 0 -9 -53 5 -80 45 -87
205 -78 249 13 10 23 15 57 13 110 -1 43 0 77 3 77 5 0 4 21 -3 140 -2 34 -4
35 -44 38 -22 2 -43 -1 -45 -5z"/>
<path d="M563 575 l1 -215 130 0 c152 0 186 9 214 59 31 56 27 106 -13 144
-32 30 -32 31 -14 51 28 29 34 78 14 116 -25 48 -65 60 -208 60 l-124 0 0
-215z m241 129 c43 -43 1 -84 -86 -84 -53 0 -58 2 -59 23 0 12 -2 34 -3 50 -2
27 -2 27 65 27 48 0 72 -5 83 -16z m-1 -165 c30 -16 34 -25 29 -60 -6 -39 -36
-51 -115 -47 l-60 3 -1 58 -1 57 63 0 c35 0 73 -5 85 -11z"/>
</g>
</svg>
