<svg width="42" height="23" viewBox="0 0 42 23" fill="none" xmlns="http://www.w3.org/2000/svg">
<path fill-rule="evenodd" clip-rule="evenodd" d="M11.24 13.53L7.79999 20.84H8.36L12.77 13.53H11.24ZM30.01 13.53L33.45 20.84H32.87L28.47 13.53H30.01Z" fill="#468275"/>
<path fill-rule="evenodd" clip-rule="evenodd" d="M0 8.04001H41.25C40.99 8.39001 40.74 8.73001 40.5 9.04001L39.81 10.04H1.42999L0.75 9.04001C0.51 8.70001 0.25 8.36001 0 8.04001Z" fill="#468275"/>
<path fill-rule="evenodd" clip-rule="evenodd" d="M3.84999 10.03H37.4C37.19 10.38 37 10.73 36.8 11.03L36.24 12.03H5.00999L4.45 11.03C4.25 10.7 4.05999 10.35 3.84999 10.03Z" fill="#62B19E"/>
<path fill-rule="evenodd" clip-rule="evenodd" d="M5.73 8.04001H35.52L33.04 5.57001L31.26 3.81001H9.98L8.20999 5.57001C7.46999 6.29001 6.66 7.12001 5.73 8.04001Z" fill="#62B19E"/>
<path fill-rule="evenodd" clip-rule="evenodd" d="M20.62 9.97047e-06C21.9487 -0.0021592 23.2541 0.349653 24.4018 1.01928C25.5495 1.68891 26.4981 2.65218 27.15 3.81001H14.1C14.7511 2.65366 15.6981 1.69135 16.8439 1.02181C17.9897 0.352276 19.2929 -0.000383258 20.62 9.97047e-06V9.97047e-06Z" fill="#63B0B8"/>
<path fill-rule="evenodd" clip-rule="evenodd" d="M21.28 0.030014C22.4918 0.136033 23.6596 0.535608 24.6824 1.19421C25.7051 1.85282 26.5521 2.75063 27.15 3.81001H15.42C16.0136 2.74915 16.8582 1.84991 17.8797 1.19095C18.9013 0.531988 20.0687 0.133386 21.28 0.030014Z" fill="#81D8DF"/>
<path fill-rule="evenodd" clip-rule="evenodd" d="M20.62 16.51C26.32 16.51 31.28 14.71 33.9 12.03H7.34999C9.96999 14.71 14.93 16.51 20.62 16.51Z" fill="#40494C"/>
<path fill-rule="evenodd" clip-rule="evenodd" d="M27.82 12.03H7.34999C9.54999 14.28 13.42 15.92 17.98 16.38C21.6352 15.9986 25.0778 14.4767 27.82 12.03V12.03Z" fill="#30373A"/>
<path fill-rule="evenodd" clip-rule="evenodd" d="M5.73 8.04001L9.98 3.81001H13.25L10.86 8.04001H5.73Z" fill="#56A08F"/>
<path fill-rule="evenodd" clip-rule="evenodd" d="M7.37 12.03L2.53 22.4H3.31999L9.53999 12.08L7.37 12.03ZM33.87 12.03L38.72 22.4H37.92L31.7 12.08L33.87 12.03Z" fill="#468275"/>
<path fill-rule="evenodd" clip-rule="evenodd" d="M24.13 1.46001C24.67 1.72001 25.02 2.12 24.92 2.33C24.82 2.54 24.28 2.50001 23.74 2.24001C23.2 1.98001 22.84 1.58001 22.95 1.37001C23.06 1.16001 23.58 1.20001 24.13 1.46001Z" fill="#FEFEFE"/>
</svg>
