<svg width="42" height="23" viewBox="0 0 42 23" fill="none" xmlns="http://www.w3.org/2000/svg">
<path d="M11.8844 14.03L10.3972 16.4952L11.5573 14.03H11.8844ZM29.3545 14.03H29.6927L30.9044 16.6049L29.3545 14.03Z" fill="#468275" stroke="black"/>
<path d="M1.0067 8.54001H40.2532C40.2032 8.60585 40.1537 8.67052 40.1046 8.73392L40.0962 8.74476L40.0885 8.75605L39.5475 9.54001H1.69464L1.16346 8.75886L1.16353 8.75881L1.15848 8.75167C1.10857 8.68095 1.05788 8.61034 1.0067 8.54001Z" fill="#468275" stroke="black"/>
<path d="M4.73487 10.53H36.5256C36.479 10.6063 36.4322 10.6803 36.384 10.7527L36.3732 10.7688L36.3637 10.7857L35.9469 11.53H5.30306L4.88625 10.7857L4.88205 10.7782L4.8776 10.7709C4.83198 10.6956 4.78422 10.6145 4.73487 10.53Z" fill="#62B19E" stroke="#80248F"/>
<path fill-rule="evenodd" clip-rule="evenodd" d="M5.73 8.04001H35.52L33.04 5.57001L31.26 3.81001H9.98L8.20999 5.57001C7.46999 6.29001 6.66 7.12001 5.73 8.04001Z" fill="#7262B1"/>
<path fill-rule="evenodd" clip-rule="evenodd" d="M20.62 9.97047e-06C21.9487 -0.0021592 23.2541 0.349653 24.4018 1.01928C25.5495 1.68891 26.4981 2.65218 27.15 3.81001H14.1C14.7511 2.65366 15.6981 1.69135 16.8439 1.02181C17.9897 0.352276 19.2929 -0.000383258 20.62 9.97047e-06V9.97047e-06Z" fill="#63B0B8"/>
<path fill-rule="evenodd" clip-rule="evenodd" d="M21.28 0.030014C22.4918 0.136033 23.6596 0.535608 24.6824 1.19421C25.7051 1.85282 26.5521 2.75063 27.15 3.81001H15.42C16.0136 2.74915 16.8582 1.84991 17.8797 1.19095C18.9013 0.531988 20.0687 0.133386 21.28 0.030014Z" fill="#81D8DF"/>
<path fill-rule="evenodd" clip-rule="evenodd" d="M20.62 16.51C26.32 16.51 31.28 14.71 33.9 12.03H7.34999C9.96999 14.71 14.93 16.51 20.62 16.51Z" fill="#40494C"/>
<path fill-rule="evenodd" clip-rule="evenodd" d="M27.82 12.03H7.34999C9.54999 14.28 13.42 15.92 17.98 16.38C21.6352 15.9986 25.0778 14.4767 27.82 12.03V12.03Z" fill="#30373A"/>
<path fill-rule="evenodd" clip-rule="evenodd" d="M5.73 8.04001L9.98 3.81001H13.25L10.86 8.04001H5.73Z" fill="#5756A0"/>
<path fill-rule="evenodd" clip-rule="evenodd" d="M7.37 12.03L2.53 22.4H3.31999L9.53999 12.08L7.37 12.03ZM33.87 12.03L38.72 22.4H37.92L31.7 12.08L33.87 12.03Z" fill="#101B18"/>
<path fill-rule="evenodd" clip-rule="evenodd" d="M24.13 1.46001C24.67 1.72001 25.02 2.12 24.92 2.33C24.82 2.54 24.28 2.50001 23.74 2.24001C23.2 1.98001 22.84 1.58001 22.95 1.37001C23.06 1.16001 23.58 1.20001 24.13 1.46001Z" fill="#FEFEFE"/>
</svg>
