<svg width="66" height="62" viewBox="0 0 66 62" fill="none" xmlns="http://www.w3.org/2000/svg">
<path d="M45 20.5098C49.7739 20.5098 54.3523 22.362 57.7279 25.659C61.1036 28.956 63 33.4276 63 38.0903V58.6009H51V38.0903C51 36.5361 50.3679 35.0455 49.2426 33.9465C48.1174 32.8475 46.5913 32.2301 45 32.2301C43.4087 32.2301 41.8826 32.8475 40.7574 33.9465C39.6321 35.0455 39 36.5361 39 38.0903V58.6009H27V38.0903C27 33.4276 28.8964 28.956 32.2721 25.659C35.6477 22.362 40.2261 20.5098 45 20.5098V20.5098Z" stroke="#B3E9C7" stroke-width="5" stroke-linecap="round" stroke-linejoin="round"/>
<path d="M15 23.4404H3V58.6014H15V23.4404Z" stroke="#B3E9C7" stroke-width="5" stroke-linecap="round" stroke-linejoin="round"/>
<path d="M9 14.65C12.3137 14.65 15 12.0263 15 8.78986C15 5.55337 12.3137 2.92969 9 2.92969C5.68629 2.92969 3 5.55337 3 8.78986C3 12.0263 5.68629 14.65 9 14.65Z" stroke="#B3E9C7" stroke-width="5" stroke-linecap="round" stroke-linejoin="round"/>
</svg>
