<svg width="62" height="65" viewBox="0 0 62 65" fill="none" xmlns="http://www.w3.org/2000/svg">
<path d="M22.9745 53.2407C8.707 57.4212 8.707 46.2732 3 44.8797M42.949 61.6017V50.816C43.0561 49.487 42.8722 48.1511 42.4098 46.8969C41.9473 45.6427 41.2168 44.499 40.2667 43.5419C49.2267 42.5665 58.6433 39.2499 58.6433 24.0329C58.6426 20.1418 57.1101 16.3999 54.363 13.5817C55.6638 10.1774 55.5719 6.41447 54.1062 3.07467C54.1062 3.07467 50.7391 2.09922 42.949 7.19943C36.4088 5.46821 29.5147 5.46821 22.9745 7.19943C15.1845 2.09922 11.8173 3.07467 11.8173 3.07467C10.3517 6.41447 10.2597 10.1774 11.5605 13.5817C8.79297 16.4208 7.25892 20.1965 7.28025 24.1165C7.28025 39.2221 16.6968 42.5386 25.6568 43.6255C24.718 44.573 23.994 45.703 23.5318 46.9418C23.0697 48.1807 22.8798 49.5007 22.9745 50.816V61.6017" stroke="#B3E9C7" stroke-width="5" stroke-linecap="round" stroke-linejoin="round"/>
</svg>
